<svg width="24" height="24" viewBox="0 0 24 24" fill="none" xmlns="http://www.w3.org/2000/svg">
<path d="M3 9.97817C3 9.36099 3.28495 8.77838 3.77212 8.39946L10.7721 2.95502C11.4943 2.39329 12.5057 2.39329 13.2279 2.95502L20.2279 8.39946C20.7151 8.77838 21 9.36099 21 9.97817V20C21 20.5304 20.7893 21.0391 20.4142 21.4142C20.0391 21.7893 19.5304 22 19 22H5C4.46957 22 3.96086 21.7893 3.58579 21.4142C3.21071 21.0391 3 20.5304 3 20V9.97817Z" fill="#292D32" stroke="#2A2E33" stroke-width="2" stroke-linecap="round" stroke-linejoin="round"/>
<path d="M9 23V13H15V23" fill="white"/>
<path d="M9 23V13H15V23" stroke="white" stroke-linecap="round" stroke-linejoin="round"/>
</svg>
