<svg width="14" height="17" viewBox="0 0 14 17" fill="none" xmlns="http://www.w3.org/2000/svg">
<path d="M13.0057 10.8543H0.927173C0.681272 10.8543 0.445442 10.7567 0.271563 10.5828C0.0976842 10.4089 0 10.1731 0 9.92717C0 9.68127 0.0976842 9.44544 0.271563 9.27156C0.445442 9.09768 0.681272 9 0.927173 9H13.0057C13.2516 9 13.4874 9.09768 13.6613 9.27156C13.8352 9.44544 13.9329 9.68127 13.9329 9.92717C13.9329 10.1731 13.8352 10.4089 13.6613 10.5828C13.4874 10.7567 13.2516 10.8543 13.0057 10.8543Z" fill="#292D32"/>
<path d="M6.41879 16.3452C6.29701 16.3453 6.17641 16.3213 6.06388 16.2748C5.95136 16.2282 5.8491 16.1599 5.76297 16.0739L0.271011 10.5825C0.102119 10.4077 0.00866475 10.1734 0.0107772 9.93035C0.0128897 9.68725 0.110399 9.4547 0.282305 9.28279C0.45421 9.11089 0.686757 9.01338 0.929859 9.01127C1.17296 9.00915 1.40717 9.10261 1.58203 9.2715L7.07399 14.7641C7.20349 14.8937 7.29166 15.0589 7.32737 15.2386C7.36308 15.4184 7.34472 15.6047 7.27461 15.774C7.2045 15.9433 7.08579 16.088 6.93347 16.1899C6.78115 16.2918 6.60204 16.3463 6.41879 16.3464V16.3452Z" fill="#292D32"/>
<path d="M13.0057 7.35825H0.927173C0.681271 7.35825 0.445442 7.26057 0.271563 7.08669C0.0976845 6.91281 0 6.67698 0 6.43108C0 6.18518 0.0976845 5.94935 0.271563 5.77547C0.445442 5.60159 0.681271 5.50391 0.927173 5.50391H13.0057C13.2516 5.50391 13.4874 5.60159 13.6613 5.77547C13.8352 5.94935 13.9329 6.18518 13.9329 6.43108C13.9329 6.67698 13.8352 6.91281 13.6613 7.08669C13.4874 7.26057 13.2516 7.35825 13.0057 7.35825Z" fill="#292D32"/>
<path d="M13.0059 7.358C12.7602 7.35795 12.5245 7.26035 12.3507 7.08665L6.85874 1.59408C6.77018 1.50855 6.69955 1.40624 6.65096 1.29312C6.60237 1.18 6.57679 1.05834 6.57572 0.93523C6.57465 0.81212 6.59811 0.690031 6.64473 0.576085C6.69135 0.462139 6.76019 0.358618 6.84725 0.271563C6.9343 0.184508 7.03782 0.115663 7.15177 0.0690443C7.26571 0.0224253 7.3878 -0.00103478 7.51091 3.50057e-05C7.63402 0.00110479 7.75569 0.0266829 7.86881 0.0752751C7.98192 0.123867 8.08423 0.194501 8.16976 0.283055L13.6617 5.77563C13.7913 5.90533 13.8794 6.07052 13.9151 6.25033C13.9508 6.43013 13.9324 6.61648 13.8622 6.78582C13.792 6.95516 13.6732 7.0999 13.5208 7.20174C13.3684 7.30359 13.1892 7.35796 13.0059 7.358Z" fill="#292D32"/>
</svg>
